<svg xmlns="http://www.w3.org/2000/svg" xml:space="preserve" fill-rule="evenodd" stroke-linecap="round"
	 stroke-linejoin="round" clip-rule="evenodd" viewBox="0 0 250 250">
	<path fill="#074d39" d="M109.19 4.517a33.993 33.993 0 0 1 31.62 0 1759.816 1759.816 0 0 1 82.694 46.518 33.996 33.996 0 0 1 16.467 28.136 1661.92 1661.92 0 0 1 0 91.657 33.999 33.999 0 0 1-16.467 28.136 1758.778 1758.778 0 0 1-82.694 46.52 33.997 33.997 0 0 1-31.62 0 1759.188 1759.188 0 0 1-82.693-46.519 33.998 33.998 0 0 1-16.468-28.137c-.843-30.474-.843-61.182 0-91.657a33.997 33.997 0 0 1 16.468-28.136 1759.188 1759.188 0 0 1 82.692-46.518Z"/>
	<path fill="none" stroke="#fff" stroke-width="1.5"
		  d="M80.082 71.786v16.993l-3.75-1.5-3.75 1.5-3.75-1.5-3.75 1.5V71.786c0-1.108.806-2.057 1.907-2.185a48.548 48.548 0 0 1 11.186 0c1.1.128 1.907 1.077 1.907 2.185Z"
		  transform="matrix(0 -6.57878 7.09148 0 -435.427 602.504)"/>
	<path fill="#fff" fill-rule="nonzero"
		  d="M106.822 124.397c-1.817 0-3.517-.332-5.091-.997a13.266 13.266 0 0 1-4.16-2.764 13.164 13.164 0 0 1-2.83-4.094c-.688-1.555-1.031-3.218-1.031-4.992 0-1.82.343-3.517 1.031-5.092a12.654 12.654 0 0 1 2.83-4.094 13.523 13.523 0 0 1 4.16-2.73c1.574-.665 3.274-1 5.091-1 1.778 0 3.464.335 5.06 1 1.598.667 2.984 1.575 4.161 2.73a12.887 12.887 0 0 1 2.798 4.094c.685 1.575 1.031 3.272 1.031 5.092 0 1.774-.346 3.437-1.031 4.992a13.417 13.417 0 0 1-2.798 4.094 12.795 12.795 0 0 1-4.16 2.764 13.017 13.017 0 0 1-5.06.997Zm0-16.842c-1.063 0-1.997.389-2.794 1.166-.8.775-1.197 1.72-1.197 2.829 0 1.066.397 1.974 1.197 2.729.797.754 1.731 1.131 2.794 1.131 1.023 0 1.932-.377 2.732-1.131.797-.755 1.197-1.663 1.197-2.729 0-1.109-.4-2.054-1.197-2.829-.8-.777-1.709-1.166-2.732-1.166Zm36.42 43.81c-1.82 0-3.517-.335-5.091-1a13.185 13.185 0 0 1-4.16-2.764 13.057 13.057 0 0 1-2.83-4.091c-.688-1.555-1.034-3.22-1.034-4.995 0-1.82.346-3.517 1.034-5.092a12.596 12.596 0 0 1 2.83-4.094 13.489 13.489 0 0 1 4.16-2.73c1.574-.665 3.271-.996 5.091-.996 1.775 0 3.46.331 5.06.997 1.598.666 2.984 1.574 4.161 2.729a12.958 12.958 0 0 1 2.795 4.094c.688 1.575 1.031 3.272 1.031 5.092 0 1.774-.343 3.44-1.031 4.995a13.447 13.447 0 0 1-2.795 4.091 12.75 12.75 0 0 1-4.16 2.764c-1.6.665-3.286 1-5.06 1Zm0-16.845c-1.065 0-1.997.389-2.797 1.166-.797.777-1.197 1.72-1.197 2.83 0 1.065.4 1.973 1.197 2.728.8.754 1.732 1.131 2.797 1.131 1.02 0 1.932-.377 2.73-1.131.8-.755 1.2-1.663 1.2-2.729 0-1.109-.4-2.052-1.2-2.829-.798-.777-1.71-1.166-2.73-1.166ZM107.76 147.5l27.956-48.13 6.458 3.663-27.891 47.995-6.523-3.528Z"/>
</svg>
